<svg xmlns="http://www.w3.org/2000/svg" viewBox="0 0 14.69 22.81"><title>Ресурс 1</title><g id="Слой_2" data-name="Слой 2"><g id="Слой_1-2" data-name="Слой 1"><path d="M13.25,0H1.44A1.45,1.45,0,0,0,0,1.44V21.37a1.45,1.45,0,0,0,1.44,1.44H13.25a1.45,1.45,0,0,0,1.44-1.44V1.44A1.45,1.45,0,0,0,13.25,0ZM.72,3.63H14V18.72H.72ZM1.44.72H13.25a.72.72,0,0,1,.72.72v1.7H.72V1.44A.72.72,0,0,1,1.44.72ZM13.25,22.09H1.44a.72.72,0,0,1-.72-.72V19.2H14v2.17A.72.72,0,0,1,13.25,22.09Z"/><path d="M7.35,19.52A1.19,1.19,0,1,0,8.53,20.7,1.19,1.19,0,0,0,7.35,19.52Zm0,1.89a.7.7,0,1,1,.7-.7A.7.7,0,0,1,7.35,21.41Z"/><path d="M5.71,2.3H9a.24.24,0,0,0,0-.48H5.71a.24.24,0,0,0,0,.48Z"/><path d="M4.84,2.3a.24.24,0,1,0-.17-.07A.24.24,0,0,0,4.84,2.3Z"/></g></g></svg>