<svg xmlns="http://www.w3.org/2000/svg" viewBox="0 0 81.98 71"><defs><style>.cls-1{fill:#6597fc;}.cls-2{fill:#fff;}</style></defs><title>Ресурс 5</title><g id="Слой_2" data-name="Слой 2"><g id="Направление"><polygon class="cls-1" points="61.49 0 20.5 0 0 35.5 20.5 71 61.49 71 81.98 35.5 61.49 0"/><path class="cls-2" d="M65.19,31.51a.8.8,0,1,0,0-1.6A18.64,18.64,0,0,1,46.58,11.3a.8.8,0,0,0-1.6,0A20.24,20.24,0,0,0,65.19,31.51Z"/><path class="cls-2" d="M16.79,39.49a.8.8,0,1,0,0,1.6A18.64,18.64,0,0,1,35.41,59.7a.8.8,0,0,0,1.6,0A20.24,20.24,0,0,0,16.79,39.49Z"/><path class="cls-2" d="M42.59,44.37a.8.8,0,0,0,0-1.6h-.8V28.23h.8a.8.8,0,0,0,0-1.6h-.8V20.16h.8a.8.8,0,1,0,0-1.6h-.8V12.1h.8a.8.8,0,0,0,0-1.6H39.4a.8.8,0,1,0,0,1.6h.8v6.47h-.8a.8.8,0,1,0,0,1.6h.8v6.47h-.8a.8.8,0,1,0,0,1.6h.8V34.7H33.72v-.8a.8.8,0,1,0-1.6,0v.8H25.65v-.8a.8.8,0,1,0-1.6,0v.8H17.59v-.8a.8.8,0,1,0-1.6,0V37.1a.8.8,0,0,0,1.6,0v-.8h6.47v.8a.8.8,0,0,0,1.6,0v-.8h6.47v.8a.8.8,0,0,0,1.6,0v-.8h6.47v6.47h-.8a.8.8,0,0,0,0,1.6h.8v6.47h-.8a.8.8,0,0,0,0,1.6h.8V58.9h-.8a.8.8,0,1,0,0,1.6h3.19a.8.8,0,1,0,0-1.6h-.8V52.43h.8a.8.8,0,1,0,0-1.6h-.8V44.37h.8Z"/><path class="cls-2" d="M65.19,33.11a.8.8,0,0,0-.8.8v.8H57.92v-.8a.8.8,0,0,0-1.6,0v.8H49.86v-.8a.8.8,0,0,0-1.6,0v.8H44.18a.8.8,0,1,0,0,1.6h4.08v.8a.8.8,0,0,0,1.6,0v-.8h6.47v.8a.8.8,0,0,0,1.6,0v-.8H64.4v.8a.8.8,0,1,0,1.6,0V33.9A.8.8,0,0,0,65.19,33.11Z"/></g></g></svg>