<svg xmlns="http://www.w3.org/2000/svg" viewBox="0 0 81.98 71"><defs><style>.cls-1{fill:#6597fc;}.cls-2{fill:#fff;}</style></defs><title>Ресурс 6</title><g id="Слой_2" data-name="Слой 2"><g id="_3_слайд" data-name="3 слайд"><polygon class="cls-1" points="61.49 0 20.5 0 0 35.5 20.5 71 61.49 71 81.98 35.5 61.49 0"/></g><g id="Направление"><path class="cls-2" d="M58.32,18.18A24.5,24.5,0,1,0,65.49,35.5,24.34,24.34,0,0,0,58.32,18.18ZM40.21,58.42a22.93,22.93,0,0,1,0-45.84Zm1.56-26.89a4,4,0,0,1,0,7.94Zm0,9.52a5.61,5.61,0,0,0,0-11.11V26.8a8.73,8.73,0,0,1,0,17.4Zm0,4.72a10.3,10.3,0,0,0,0-20.54v-4a14.27,14.27,0,0,1,0,28.5Zm0,12.65V56.86a21.36,21.36,0,0,0,13.13-5.15.78.78,0,1,0-1-1.19,19.8,19.8,0,0,1-12.11,4.77v-4a15.84,15.84,0,0,0,0-31.63v-4A19.8,19.8,0,0,1,56,48.4a.78.78,0,1,0,1.19,1A21.36,21.36,0,0,0,41.77,14.14V12.58a22.93,22.93,0,0,1,0,45.84Z"/><path class="cls-2" d="M23.5,36.93a1.44,1.44,0,0,1-1.44-1.44v-6a.78.78,0,1,0-1.56,0v6a3,3,0,0,0,2.22,2.9v1.78a5.93,5.93,0,0,0-1.81,1.59.78.78,0,0,0,1.25.94,4.35,4.35,0,0,1,1.63-1.32l.1,0a4.36,4.36,0,0,1,6.1,4V46a.78.78,0,0,0,.78.78H33.1a2.7,2.7,0,0,1,.56,5.34.78.78,0,0,0-.62.77V54.8a.78.78,0,1,0,1.56,0V53.47a4.27,4.27,0,0,0-1.5-8.26H31.55a5.92,5.92,0,0,0-5.92-5.8,6,6,0,0,0-1.35.15V38.39a3,3,0,0,0,2.22-2.9v-.91c1.17,0,3.16,0,5,0v.25a.78.78,0,1,0,1.56,0V23.41a3.54,3.54,0,0,0-1.74-6.62h-.49a.78.78,0,0,0,0,1.56h.49A2,2,0,0,1,32,22.18a.78.78,0,0,0-.51.73V33c-2.6,0-5.24.06-5.64,0a.78.78,0,0,0-.95.76v1.74a1.44,1.44,0,0,1-1.44,1.44Z"/><path class="cls-2" d="M37.5,18.49a.78.78,0,1,0,.72-1.39,6,6,0,0,1-2.14-1.88.78.78,0,1,0-1.28.9,7.62,7.62,0,0,0,2.7,2.37Z"/><path class="cls-2" d="M28.28,36.79v.31a.78.78,0,0,0,1.56,0v-.31a.78.78,0,1,0-1.56,0Z"/></g></g></svg>