<svg xmlns="http://www.w3.org/2000/svg" viewBox="0 0 81.98 71"><defs><style>.cls-1{fill:#6597fc;}.cls-2{fill:#fff;}</style></defs><title>Ресурс 3</title><g id="Слой_2" data-name="Слой 2"><g id="_3_слайд" data-name="3 слайд"><polygon class="cls-1" points="61.49 0 20.5 0 0 35.5 20.5 71 61.49 71 81.98 35.5 61.49 0"/><path class="cls-2" d="M44.61,31.71a4.5,4.5,0,0,0-3.36,0V29.82a.76.76,0,1,0-1.51,0v1.85a4.52,4.52,0,0,0-5.81,6l2.31,5.59a3,3,0,0,0,4.26,1.43,3,3,0,0,0,4.26-1.43l2.31-5.59A4.53,4.53,0,0,0,44.61,31.71ZM45.66,37l-2.31,5.59a1.46,1.46,0,0,1-2.34.51.76.76,0,0,0-1,0,1.46,1.46,0,0,1-2.34-.52L35.32,37A3,3,0,0,1,40,33.56l.1.07h0l.11,0h0l.11,0h.27l.11,0h0l.11,0h0l.1-.07a3,3,0,0,1,1.91-.68A3,3,0,0,1,45.66,37Z"/><circle class="cls-2" cx="42.94" cy="35.97" r="0.76"/><path class="cls-2" d="M54.28,28.45a29,29,0,0,0-5.52-2.17l-.13,0a30.82,30.82,0,0,0-16.26,0l-.13,0a29,29,0,0,0-5.53,2.17,26,26,0,0,0-9.8,8.69.76.76,0,0,0,0,.83,26,26,0,0,0,9.8,8.69,29,29,0,0,0,5.54,2.17l.1,0a30.81,30.81,0,0,0,16.3,0l.1,0a29,29,0,0,0,5.54-2.17A26,26,0,0,0,64.08,38a.76.76,0,0,0,0-.83,26,26,0,0,0-9.8-8.69ZM18.45,37.56a25,25,0,0,1,11.08-8.73,14,14,0,0,0,0,17.47,25,25,0,0,1-11.08-8.73Zm29.71,9.86a29,29,0,0,1-15.34,0,12.49,12.49,0,0,1,0-19.72,29,29,0,0,1,15.34,0,12.49,12.49,0,0,1,0,19.72Zm3.28-1.12a14,14,0,0,0,0-17.47,25,25,0,0,1,11.08,8.73A25,25,0,0,1,51.45,46.3Z"/><path class="cls-2" d="M55.44,48.91a33,33,0,0,1-29.89,0,.76.76,0,0,0-.7,1.34,34.5,34.5,0,0,0,31.28,0,.76.76,0,1,0-.7-1.34Z"/><path class="cls-2" d="M17.54,31.93a.75.75,0,0,0,.54-.23,29.3,29.3,0,0,1,7.47-5.49,32.6,32.6,0,0,1,14.95-3.58,33.07,33.07,0,0,1,12.7,2.53.76.76,0,1,0,.59-1.4,34.59,34.59,0,0,0-13.29-2.65,34.12,34.12,0,0,0-15.64,3.75A30.82,30.82,0,0,0,17,30.65a.76.76,0,0,0,.54,1.29Z"/><path class="cls-2" d="M55.86,26.44a29.23,29.23,0,0,1,7,5.27A.76.76,0,0,0,64,30.65a30.74,30.74,0,0,0-7.41-5.54.76.76,0,0,0-.72,1.33Z"/></g></g></svg>