<svg xmlns="http://www.w3.org/2000/svg" viewBox="0 0 81.98 71"><defs><style>.cls-1{fill:#6597fc;}.cls-2{fill:#fff;}</style></defs><title>Ресурс 7</title><g id="Слой_2" data-name="Слой 2"><g id="_3_слайд" data-name="3 слайд"><polygon class="cls-1" points="61.49 0 20.5 0 0 35.5 20.5 71 61.49 71 81.98 35.5 61.49 0"/></g><g id="Направление"><path class="cls-2" d="M61.32,52.48H24V15.17a.67.67,0,1,0-1.34,0v5.66h-2a.67.67,0,0,0,0,1.34h2v5h-2a.67.67,0,1,0,0,1.34h2v5h-2a.67.67,0,1,0,0,1.34h2v5h-2a.67.67,0,1,0,0,1.34h2v5h-2a.67.67,0,1,0,0,1.34h2v5.66a.67.67,0,0,0,.67.67h9.9v2a.67.67,0,1,0,1.34,0v-2H50.08v2a.67.67,0,0,0,1.34,0v-2h9.9a.67.67,0,0,0,0-1.34Z"/><path class="cls-2" d="M26.92,51.14a.67.67,0,0,0,.67-.67V34.83h5.66V50.47a.67.67,0,0,0,1.34,0V41.16h5.29v9.31a.67.67,0,0,0,1.34,0v-10a.67.67,0,0,0-.67-.67h-6V34.16a.67.67,0,0,0-.67-.67h-7a.67.67,0,0,0-.67.67V50.47A.67.67,0,0,0,26.92,51.14Z"/><path class="cls-2" d="M44.12,51.14a.67.67,0,0,0,.67-.67V22.17h5.29v28.3a.67.67,0,0,0,1.34,0v-22h5.66v22a.67.67,0,0,0,1.34,0V27.83a.67.67,0,0,0-.67-.67H51.42V21.5a.67.67,0,0,0-.67-.67H44.12a.67.67,0,0,0-.67.67v29A.67.67,0,0,0,44.12,51.14Z"/></g></g></svg>