<svg xmlns="http://www.w3.org/2000/svg" viewBox="0 0 81.98 71"><defs><style>.cls-1{fill:#6597fc;}.cls-2{fill:#fff;}</style></defs><title>Ресурс 2</title><g id="Слой_2" data-name="Слой 2"><g id="_3_слайд" data-name="3 слайд"><polygon class="cls-1" points="61.49 0 20.5 0 0 35.5 20.5 71 61.49 71 81.98 35.5 61.49 0"/><path class="cls-2" d="M58.26,53.64l-.31-.92a3.45,3.45,0,0,0-1.47-4.3L51.33,33.31H55v.29a.86.86,0,0,0,1.73,0v-2.3a.86.86,0,0,0-1.73,0v.29H50.74l-4.4-12.91a.87.87,0,0,0-.08-.17A5.17,5.17,0,0,0,42,12.67V8.86a.86.86,0,1,0-1.73,0v3.81a5.17,5.17,0,0,0-4.23,6L31.65,31.58H27.26v-.29a.86.86,0,0,0-1.73,0v2.3a.86.86,0,0,0,1.73,0V33.3h3.8l-2.73,8a.86.86,0,1,0,1.63.56L37.08,21a5.17,5.17,0,0,0,1.31,1.17L26.49,57.08a2.52,2.52,0,0,1-.71-.91,2.42,2.42,0,0,1,0-1.92l0,0,3.09-9.07a.86.86,0,1,0-1.63-.56l-1.3,3.8a3.44,3.44,0,0,0-1.51,4.42l-.28.82a4.13,4.13,0,0,0,.07,3.26,4.27,4.27,0,0,0,1.7,1.9l-.73,2.14a.86.86,0,1,0,1.63.56l2.41-7.07a3.45,3.45,0,0,0,1.48-4.33L36.42,33.3h3.86v1.44a.86.86,0,0,0,1.73,0V33.3h3.86l5.72,16.76a3.45,3.45,0,0,0,1.48,4.33l2.41,7.07a.86.86,0,1,0,1.63-.56l-.73-2.14a4.36,4.36,0,0,0,1.9-5.13ZM53,51.4a1.73,1.73,0,1,1,1.73,1.73A1.73,1.73,0,0,1,53,51.4ZM54.5,48a3.43,3.43,0,0,0-1.63.55l-9-26.35a5.17,5.17,0,0,0,1.39-1.27ZM42,22.09a.86.86,0,1,1,0-.17A.86.86,0,0,1,42,22.09Zm-.86-7.76a3.45,3.45,0,0,1,2.07,6.21,2.58,2.58,0,0,0-4.14,0,3.45,3.45,0,0,1,2.07-6.21ZM42,31.58V30.14a.86.86,0,1,0-1.73,0v1.44H37l2.54-7.45a2.58,2.58,0,0,0,3.19,0l2.54,7.45H42Zm13.79,25.5L55,54.84a3.43,3.43,0,0,0,1.63-.56A2.63,2.63,0,0,1,55.79,57.08Z"/></g></g></svg>