<svg xmlns="http://www.w3.org/2000/svg" viewBox="0 0 81.98 71"><defs><style>.cls-1{fill:#6597fc;}.cls-2{fill:#fff;}</style></defs><title>Ресурс 4</title><g id="Слой_2" data-name="Слой 2"><g id="_3_слайд" data-name="3 слайд"><polygon class="cls-1" points="61.49 0 20.5 0 0 35.5 20.5 71 61.49 71 81.98 35.5 61.49 0"/><path class="cls-2" d="M33.73,33,33,32.75a.77.77,0,0,0-.47,1.46l.77.25a7.39,7.39,0,0,0,0,3.09l-.77.25A.77.77,0,1,0,33,39.25l.77-.25a7.44,7.44,0,0,0,1.82,2.5l-.48.66a.77.77,0,1,0,1.24.9l.48-.65a7.35,7.35,0,0,0,2.94,1v.81a.77.77,0,0,0,1.53,0v-.81a7.35,7.35,0,0,0,2.94-1l.48.65a.77.77,0,1,0,1.24-.9l-.48-.66A7.44,7.44,0,0,0,47.26,39l.77.25a.77.77,0,0,0,.47-1.46l-.77-.25a7.39,7.39,0,0,0,0-3.09l.77-.25A.77.77,0,0,0,48,32.75l-.77.25a7.44,7.44,0,0,0-1.82-2.5l.48-.66a.77.77,0,1,0-1.24-.9l-.48.65a7.35,7.35,0,0,0-2.94-1v-.81a.77.77,0,0,0-1.53,0v.81a7.35,7.35,0,0,0-2.94,1l-.48-.65a.77.77,0,1,0-1.24.9l.48.66A7.44,7.44,0,0,0,33.73,33Zm6.77-2.87A5.87,5.87,0,1,1,34.62,36,5.88,5.88,0,0,1,40.49,30.13Z"/><path class="cls-2" d="M57.46,19A24,24,0,1,0,52.21,57a.77.77,0,1,0-.75-1.34A22.46,22.46,0,1,1,60.1,47a.77.77,0,0,0,1.34.75,24,24,0,0,0-4-28.69Z"/><path class="cls-2" d="M56.92,48.34A4.09,4.09,0,1,0,61,52.43,4.09,4.09,0,0,0,56.92,48.34Zm0,6.64a2.55,2.55,0,1,1,2.55-2.55A2.56,2.56,0,0,1,56.92,55Z"/><path class="cls-2" d="M28.85,47.64a16.47,16.47,0,1,0,5.6-27A.77.77,0,1,0,35,22.1a14.94,14.94,0,1,1-8.42,8.42A.77.77,0,1,0,25.17,30,16.47,16.47,0,0,0,28.85,47.64Z"/><path class="cls-2" d="M29.39,20.81A4.09,4.09,0,1,0,32.28,22a4.06,4.06,0,0,0-2.89-1.2Zm1.81,5.89a2.55,2.55,0,1,1,0-3.61A2.54,2.54,0,0,1,31.19,26.7Z"/></g></g></svg>